<svg width="470" height="391" viewBox="0 0 470 391" fill="none" xmlns="http://www.w3.org/2000/svg">
<g clip-path="url(#clip0_4263_27163)">
<path d="M140.08 231.29H17.1899V374.55H140.08V231.29Z" fill="#874F2E"/>
<path d="M140.09 231.29H97.39V374.55H140.09V231.29Z" fill="#AD6E47"/>
<path d="M111.33 242.26H126.15V242.38C126.15 243.114 125.858 243.819 125.339 244.338C124.819 244.858 124.115 245.15 123.38 245.15H114.1C113.365 245.15 112.661 244.858 112.141 244.338C111.622 243.819 111.33 243.114 111.33 242.38V242.26Z" stroke="#704226" stroke-width="0.788851" stroke-miterlimit="10"/>
<path d="M140.09 267.1H17.1899" stroke="#704226" stroke-width="0.788851" stroke-miterlimit="10"/>
<path d="M111.33 278.08H126.15V278.2C126.15 278.935 125.858 279.639 125.339 280.159C124.819 280.678 124.115 280.97 123.38 280.97H114.1C113.365 280.97 112.661 280.678 112.141 280.159C111.622 279.639 111.33 278.935 111.33 278.2V278.08Z" stroke="#704226" stroke-width="0.788851" stroke-miterlimit="10"/>
<path d="M140.09 302.92H17.1899" stroke="#704226" stroke-width="0.788851" stroke-miterlimit="10"/>
<path d="M111.33 313.89H126.15V314C126.15 314.735 125.858 315.439 125.339 315.959C124.819 316.478 124.115 316.77 123.38 316.77H114.1C113.365 316.77 112.661 316.478 112.141 315.959C111.622 315.439 111.33 314.735 111.33 314V313.88V313.89Z" stroke="#704226" stroke-width="0.788851" stroke-miterlimit="10"/>
<path d="M140.09 338.73H17.1899" stroke="#704226" stroke-width="0.788851" stroke-miterlimit="10"/>
<path d="M111.33 349.71H126.15V349.83C126.15 350.565 125.858 351.269 125.339 351.789C124.819 352.308 124.115 352.6 123.38 352.6H114.1C113.365 352.6 112.661 352.308 112.141 351.789C111.622 351.269 111.33 350.565 111.33 349.83V349.71Z" stroke="#704226" stroke-width="0.788851" stroke-miterlimit="10"/>
<path opacity="0.2" d="M448.32 153.48H357.32V193.54H448.32V153.48Z" fill="black"/>
<path d="M445.97 150.75H354.97V190.81H445.97V150.75Z" fill="#407BFF"/>
<path d="M366.03 190.81H354.97V150.75H374.9L366.03 190.81Z" fill="#2D7EA3"/>
<path d="M384.019 180.361C382.375 180.361 380.974 180.064 379.816 179.47C378.657 178.866 377.776 177.935 377.172 176.678C376.568 175.42 376.266 173.811 376.266 171.851C376.266 169.821 376.608 168.168 377.291 166.891C377.984 165.603 378.94 164.658 380.157 164.054C381.385 163.45 382.806 163.148 384.42 163.148C385.568 163.148 386.559 163.262 387.39 163.49C388.232 163.707 388.964 163.97 389.588 164.277L388.252 167.782C387.539 167.495 386.875 167.262 386.262 167.084C385.648 166.896 385.034 166.801 384.42 166.801C383.628 166.801 382.969 166.99 382.445 167.366C381.92 167.732 381.529 168.287 381.271 169.029C381.014 169.772 380.885 170.703 380.885 171.821C380.885 172.92 381.024 173.831 381.301 174.554C381.578 175.277 381.979 175.816 382.504 176.173C383.029 176.519 383.667 176.693 384.42 176.693C385.361 176.693 386.197 176.569 386.93 176.321C387.663 176.064 388.375 175.707 389.068 175.252V179.128C388.375 179.564 387.648 179.876 386.885 180.064C386.133 180.262 385.177 180.361 384.019 180.361ZM404.514 175.133C404.514 176.262 404.247 177.217 403.712 178C403.187 178.772 402.4 179.361 401.351 179.767C400.301 180.163 398.994 180.361 397.43 180.361C396.271 180.361 395.276 180.287 394.445 180.138C393.623 179.99 392.791 179.742 391.95 179.396V175.653C392.851 176.059 393.816 176.396 394.846 176.663C395.885 176.92 396.796 177.049 397.578 177.049C398.46 177.049 399.088 176.92 399.465 176.663C399.851 176.396 400.044 176.049 400.044 175.623C400.044 175.346 399.965 175.099 399.806 174.881C399.658 174.653 399.331 174.401 398.826 174.123C398.321 173.836 397.529 173.465 396.45 173.009C395.41 172.574 394.554 172.133 393.88 171.688C393.217 171.242 392.722 170.717 392.395 170.113C392.078 169.5 391.92 168.722 391.92 167.782C391.92 166.247 392.514 165.094 393.702 164.321C394.9 163.539 396.499 163.148 398.499 163.148C399.529 163.148 400.509 163.252 401.44 163.46C402.38 163.668 403.346 163.999 404.336 164.455L402.97 167.722C402.148 167.366 401.371 167.074 400.638 166.846C399.915 166.618 399.177 166.504 398.425 166.504C397.762 166.504 397.262 166.594 396.925 166.772C396.588 166.95 396.42 167.222 396.42 167.589C396.42 167.856 396.504 168.094 396.672 168.301C396.851 168.509 397.187 168.742 397.682 169C398.187 169.247 398.925 169.569 399.895 169.965C400.836 170.351 401.653 170.757 402.346 171.183C403.039 171.599 403.574 172.118 403.95 172.742C404.326 173.356 404.514 174.153 404.514 175.133ZM419.633 175.133C419.633 176.262 419.366 177.217 418.831 178C418.306 178.772 417.519 179.361 416.47 179.767C415.42 180.163 414.113 180.361 412.549 180.361C411.39 180.361 410.395 180.287 409.564 180.138C408.742 179.99 407.91 179.742 407.069 179.396V175.653C407.97 176.059 408.935 176.396 409.965 176.663C411.004 176.92 411.915 177.049 412.697 177.049C413.579 177.049 414.207 176.92 414.584 176.663C414.97 176.396 415.163 176.049 415.163 175.623C415.163 175.346 415.084 175.099 414.925 174.881C414.777 174.653 414.45 174.401 413.945 174.123C413.44 173.836 412.648 173.465 411.569 173.009C410.529 172.574 409.673 172.133 408.999 171.688C408.336 171.242 407.841 170.717 407.514 170.113C407.197 169.5 407.039 168.722 407.039 167.782C407.039 166.247 407.633 165.094 408.821 164.321C410.019 163.539 411.618 163.148 413.618 163.148C414.648 163.148 415.628 163.252 416.559 163.46C417.499 163.668 418.465 163.999 419.455 164.455L418.088 167.722C417.267 167.366 416.489 167.074 415.757 166.846C415.034 166.618 414.296 166.504 413.544 166.504C412.881 166.504 412.381 166.594 412.044 166.772C411.707 166.95 411.539 167.222 411.539 167.589C411.539 167.856 411.623 168.094 411.791 168.301C411.97 168.509 412.306 168.742 412.801 169C413.306 169.247 414.044 169.569 415.014 169.965C415.955 170.351 416.772 170.757 417.465 171.183C418.158 171.599 418.692 172.118 419.069 172.742C419.445 173.356 419.633 174.153 419.633 175.133Z" fill="white"/>
<path d="M296.29 373.36H291.38L290.27 246.41H297.4L296.29 373.36Z" fill="#AD6E47"/>
<path d="M304.72 330.81H282.95L286.8 321.35H300.87L304.72 330.81Z" fill="#874F2E"/>
<path d="M304.72 330.81H283L287.2 338.57C287.466 339.062 287.86 339.473 288.341 339.76C288.821 340.047 289.37 340.199 289.93 340.2H297.84C298.401 340.198 298.95 340.045 299.432 339.759C299.914 339.472 300.31 339.062 300.58 338.57L304.72 330.81Z" fill="#704226"/>
<path d="M329.86 373.36H324.67L298.34 321.36H302.09C303.345 321.359 304.573 321.722 305.627 322.403C306.681 323.084 307.515 324.055 308.03 325.2L329.86 373.36Z" fill="#AD6E47"/>
<path d="M257.82 373.36H263L289.33 321.36H285.58C284.325 321.361 283.098 321.723 282.044 322.404C280.99 323.086 280.156 324.056 279.64 325.2L257.82 373.36Z" fill="#AD6E47"/>
<path d="M240.23 249.68H306.6C335.25 249.68 350.46 230.23 356.48 205.46C362.5 180.69 365.32 165.85 368.48 150.63C371.64 135.41 366.01 113.27 346.91 113.27H310.49C295.99 113.27 288.17 108.74 281.49 132.34C274.81 155.94 268.82 186.72 264.73 202.28C260.64 217.84 229.59 215.63 218.54 225.72C209.92 233.56 209.59 249.68 240.23 249.68Z" fill="#CECECE"/>
<path d="M339.14 173.72C335.69 157.53 330.39 143.31 329.59 137.72C328.89 132.72 333.2 120.45 329.52 113.31H310.52C296.02 113.31 288.2 108.78 281.52 132.38C274.84 155.98 268.85 186.76 264.76 202.32C260.67 217.88 229.62 215.67 218.57 225.76C209.97 233.6 209.64 249.76 240.28 249.76H273.53C269.33 243.71 265.3 234.82 277.91 234.82H306.83C322.48 234.82 329.64 230.57 335.48 220.75C341.32 210.93 342.59 189.9 339.14 173.72Z" fill="#E0E0E0"/>
<path d="M175.4 325.73C175.4 325.73 170.1 357.18 168.18 363.73C167.34 366.59 157.76 372.47 154.74 373.65C151.72 374.83 146 375 146 377C146 379 160.45 379.35 167.51 378.84C174.57 378.33 181.45 379.18 181.62 376.84C181.79 374.5 179.1 372.84 179.77 367.77C180.44 362.7 193.38 325.77 193.38 325.77L175.4 325.73Z" fill="#FF6C37"/>
<path d="M247.07 325.73C247.07 325.73 252.89 355.98 252.37 363.73C252.16 366.73 241.95 372.47 238.93 373.65C235.91 374.83 230.19 374.99 230.19 377.01C230.19 379.03 244.64 379.36 251.69 378.85C258.74 378.34 265.64 379.19 265.81 376.85C265.98 374.51 264.36 372.85 263.96 367.78C263.51 362.12 265.05 325.78 265.05 325.78L247.07 325.73Z" fill="#FF6C37"/>
<path d="M249 336.21L264.41 343.35C264.73 334.05 265.08 325.73 265.08 325.73H247.08C247.08 325.73 247.94 330.24 249 336.21Z" fill="#A63B3B"/>
<path d="M173.69 335.63L188.13 341C190.94 332.7 193.38 325.73 193.38 325.73H175.38C175.38 325.73 174.69 330 173.69 335.63Z" fill="#A63B3B"/>
<path d="M212.51 330H170.76C170.76 330 187 236.24 191.64 221C196.28 205.76 218.86 194.14 280.42 194.13L272.61 223.13L229.13 239.76C225.233 246.66 222.63 254.214 221.45 262.05C219.93 274.05 220.29 279.37 216.45 285.39C212.61 291.41 215.74 295.65 214.68 304.14C213.62 312.63 212.51 330 212.51 330Z" fill="black"/>
<path d="M193.93 216C204.6 213.87 208.44 225.06 209.15 242.94C209.625 254.189 213.429 265.044 220.08 274.13C220.51 270.91 220.82 267.07 221.45 262.05C222.63 254.214 225.233 246.66 229.13 239.76L272.61 223.13L280.42 194.13C225.82 194.17 201.86 203.34 193.93 216Z" fill="black"/>
<path d="M175.72 320.96H207.55" stroke="#286150" stroke-width="1.06121" stroke-linecap="round" stroke-linejoin="round"/>
<path d="M227.54 225.72C227.54 225.72 216.54 231.02 213.92 239.51C211.3 248 210.47 270.51 207.55 277.98C204.63 285.45 206.85 289.12 206.4 295.98C205.95 302.84 202.78 321 202.78 321" stroke="#263238" stroke-width="1.06121" stroke-linecap="round" stroke-linejoin="round"/>
<path d="M231.08 121.45L217.08 173.8L159.08 187.8H224.67C227.728 187.798 230.709 186.846 233.203 185.076C235.697 183.307 237.579 180.806 238.59 177.92L253.71 134.74C253.71 134.74 241.87 118.62 231.08 121.45Z" fill="#B85050"/>
<path d="M253.72 134.72C253.72 134.72 241.87 118.62 231.08 121.45L226.74 137.69C228.01 138.996 229.645 139.888 231.43 140.25C238.06 141.74 240.29 156.06 244.43 161.25L253.72 134.72Z" fill="#A63B3B"/>
<path d="M276.61 86.1602C276.61 86.1602 294.31 89.8802 303.86 94.3902C313.41 98.9002 316.33 109.78 318.86 126.76L300.24 127.82C300.24 127.82 308.91 161.95 313.15 174.16C317.39 186.37 326.42 192.55 320.23 193.79C314.04 195.03 263.23 193.79 254.96 193.79C246.69 193.79 257.26 181.79 258.32 174.69C259.38 167.59 257.79 155.23 253.73 150.1C249.67 144.97 244.35 146.74 245.24 130.83L227.55 123.57C227.55 123.57 233.74 105.71 245.41 97.2202C257.08 88.7302 265.19 86.7802 276.61 86.1602Z" fill="#407BFF"/>
<path d="M314.73 127L300.16 174.26C298.952 178.178 296.52 181.606 293.222 184.041C289.923 186.476 285.93 187.79 281.83 187.79H207.55C207.55 187.79 209.5 181.42 214.8 180.89C220.1 180.36 221.35 181.42 225.06 181.6C228.77 181.78 274.93 170.82 274.93 170.82L287.72 128.69L314.73 127Z" fill="#FF6C37"/>
<path d="M238.51 128.07L245.23 130.83C245.93 125.17 248.42 118.93 248.41 114.38C248.41 111.19 246.11 115.3 243.1 121.12C241.808 123.585 240.27 125.914 238.51 128.07Z" fill="#313F4A"/>
<path d="M287.72 128.68H284C284 128.68 284.62 119.05 287.76 113.27" stroke="#313F4A" stroke-width="1.06121" stroke-linecap="round" stroke-linejoin="round"/>
<path d="M317.39 188.84C317.39 188.84 337.29 234.74 306.78 234.74H262.78C262.78 234.74 264.29 241.87 262.61 247.82C261.841 250.404 261.82 253.154 262.55 255.75C264.66 262.87 268.6 276.57 269.94 283.82C271.8 293.9 273.64 296.02 274.94 305.04C276.24 314.06 282.11 320.69 280.26 329.98H234.36C234.36 329.98 224.81 267.63 221.89 241.63C218.97 215.63 231.18 196.8 255.89 196.8C255.89 196.8 285.07 192.8 289.05 190.96L317.39 188.84Z" fill="black"/>
<path d="M237.17 320.96H276" stroke="#286150" stroke-width="1.06121" stroke-linecap="round" stroke-linejoin="round"/>
<path d="M263.8 321C263.8 321 263.8 308 262.21 299.24C260.62 290.48 259 280.4 258 274.15C257 267.9 256.14 257.29 255.35 249.59C254.56 241.89 256.05 236.59 256.63 227.59C267.02 225.47 295.94 228.12 305.22 224.41C314.5 220.7 321.69 218.31 323.8 210.35" stroke="#263238" stroke-width="1.06121" stroke-linecap="round" stroke-linejoin="round"/>
<path d="M286.13 133.92C290.87 133.46 302.44 132.92 311.43 137.68L314.73 126.99L287.73 128.68L286.13 133.92Z" fill="#A63B3B"/>
<path d="M164.48 367.69C161.461 370.018 158.194 372.006 154.74 373.62C151.74 374.79 146 374.96 146 376.98C146 379 160.45 379.33 167.51 378.82C174.57 378.31 181.45 379.16 181.62 376.82C181.76 374.89 179.98 373.41 179.7 370.16C177.88 370.25 175.7 370.32 172.97 370.35C167.94 370.4 165.57 369.1 164.48 367.69Z" fill="black"/>
<path d="M248.66 367.69C245.644 370.017 242.381 372.006 238.93 373.62C235.93 374.79 230.19 374.96 230.19 376.98C230.19 379 244.64 379.33 251.69 378.82C258.74 378.31 265.64 379.16 265.81 376.82C265.94 374.89 264.16 373.41 263.89 370.16C262.07 370.25 259.84 370.32 257.15 370.35C252.12 370.4 249.76 369.1 248.66 367.69Z" fill="black"/>
<path d="M251.13 75.4902C252.32 78.2102 252.46 80.1302 254.25 81.9202C255.486 82.9834 256.915 83.7983 258.46 84.3202C258.874 84.4728 259.316 84.5373 259.757 84.5098C260.198 84.4822 260.628 84.3632 261.02 84.1602L262.51 83.4002L264.71 89.3502L261.39 90.7702C259.881 91.4181 258.525 92.3761 257.411 93.5821C256.296 94.7881 255.447 96.215 254.92 97.7702C252.54 104.68 252.14 116.26 263.44 116.26C277.13 116.26 285.13 102.35 289.07 94.3302C289.263 93.942 289.363 93.5142 289.363 93.0806C289.362 92.647 289.261 92.2195 289.067 91.8317C288.873 91.4439 288.592 91.1064 288.245 90.8458C287.899 90.5853 287.496 90.4088 287.07 90.3302C283.87 89.7702 279.45 88.4502 278.02 85.3302C275.7 80.3302 273.91 75.0502 273.91 75.0502C273.91 75.0502 274.51 64.5702 273.84 61.3902C273.17 58.2102 269 50.2802 260.68 52.4702C252.36 54.6602 245.8 60.9202 247 69.0502C247.22 70.3802 251.13 75.4902 251.13 75.4902Z" fill="#FF6C37"/>
<path d="M264.71 89.3501L266.19 93.4601" stroke="#A63B3B" stroke-width="0.795907" stroke-miterlimit="10" stroke-linecap="round"/>
<path d="M263.53 86.16C266.53 86.16 267.78 79.8 268.73 78.25C269.68 76.7 268.84 75.78 268.13 76.92C267.42 78.06 265.39 81.92 262.51 83.4L263.53 86.16Z" fill="#A63B3B"/>
<path d="M261.94 55.3902C262.524 58.6903 263.939 61.7875 266.05 64.3902C267.11 65.7202 266.98 71.2902 268.71 71.9502C270.44 72.6102 268.44 69.1702 269.5 66.7802C270.56 64.3902 273 65.4702 273 68.1302C272.908 70.0086 272.457 71.8519 271.67 73.5602L273.88 75.0002C273.88 75.0002 274.94 69.1702 276.4 62.4002C277.86 55.6302 271.62 48.4702 260.61 49.8002C260.61 49.8002 246.55 43.1702 240.85 56.8002C235.15 70.4302 245.76 72.0602 245.76 72.0602L251.26 75.7702L249.51 71.4902C249.176 70.6729 249.14 69.7641 249.409 68.923C249.678 68.0819 250.234 67.3623 250.98 66.8902C254.39 64.7702 260 60.5402 261.94 55.3902Z" fill="#7A2C2C"/>
<path d="M279.994 45.5257C280.737 40.6055 277.351 36.0143 272.431 35.271C267.511 34.5278 262.919 37.914 262.176 42.8342C261.433 47.7545 264.819 52.3457 269.739 53.0889C274.66 53.8322 279.251 50.446 279.994 45.5257Z" fill="#7A2C2C"/>
<path d="M344.98 187.78H238.51V197.86H344.98V187.78Z" stroke="#16367C" stroke-width="0.75603" stroke-miterlimit="10"/>
<path d="M261.72 184.54H108.51V187.78H261.72V184.54Z" fill="#455A64"/>
<path d="M203.37 187.78H105.17L89.76 117.57H187.95L203.37 187.78Z" fill="#263238"/>
<path d="M203.37 187.78H199.76L184.35 117.57H187.95L203.37 187.78Z" fill="#455A64"/>
<path d="M153.15 152.67C154.26 157.76 151.05 161.88 145.96 161.88C143.344 161.766 140.836 160.806 138.811 159.146C136.786 157.485 135.355 155.213 134.73 152.67C133.62 147.59 136.83 143.47 141.92 143.47C144.534 143.586 147.041 144.545 149.065 146.203C151.089 147.861 152.522 150.13 153.15 152.67Z" fill="#407BFF"/>
<path d="M51.89 157.45C51.89 157.45 45.6 153.03 49.11 147.15C52.62 141.27 66.98 143.28 67.72 138.68C68.46 134.08 52.35 134.45 40.3 134.63C28.25 134.81 23.46 133.63 23.46 130.63C23.46 127.06 28.03 127.33 27.88 122.9C27.69 117.5 0 120.37 0 120.37C0 120.37 5.69 118.37 16.38 117.63C24.29 117.06 37.72 116.14 38.46 122.4C39.2 128.66 44.35 127.92 54.74 128.65C65.13 129.38 74.43 132.42 73.74 142.09C73.05 151.76 53.99 145.24 51.74 150.09C49.49 154.94 56.25 157.45 56.25 157.45H51.89Z" fill="#EBEBEB"/>
<path d="M36.87 155.41L39.2 184.3C39.2781 185.252 39.713 186.14 40.4176 186.785C41.1222 187.431 42.0446 187.786 43 187.78H55.63C56.5802 187.778 57.4951 187.42 58.1934 186.775C58.8916 186.131 59.3223 185.247 59.4 184.3L61.73 155.41H36.87Z" fill="#407BFF"/>
<path opacity="0.2" d="M317.34 34.1602V68.8102L296.65 82.2302H317.34V92.4002H400.47V34.1602H317.34Z" fill="black"/>
<path d="M314.73 31.1001V65.7601L294.04 79.1801H314.73V89.3501H397.86V31.1001H314.73Z" fill="#FF6C37"/>
<path d="M345.682 70.9826L328.337 63.3322V60.8344L345.682 52.171V56.363L333.734 61.8999L345.682 66.808V70.9826ZM361.873 48.992L352.354 74.5283H347.516L357.035 48.992H361.873ZM363.585 66.808L375.532 61.8999L363.585 56.363V52.171L380.929 60.8344V63.3322L363.585 70.9826V66.808Z" fill="white"/>
<path opacity="0.2" d="M461.5 188.79H385.27V228.85H461.5V188.79Z" fill="black"/>
<path d="M458.59 185.61H382.36V225.67H458.59V185.61Z" fill="#FF6C37"/>
<path d="M406.174 211.584H403.64V206.41H398.891V211.584H396.349V199.595H398.891V204.294H403.64V199.595H406.174V211.584ZM413.833 211.584H411.291V201.711H408.035V199.595H417.089V201.711H413.833V211.584ZM424.011 211.584L421.124 202.178H421.05C421.061 202.402 421.077 202.741 421.099 203.195C421.127 203.643 421.151 204.122 421.173 204.63C421.195 205.139 421.206 205.598 421.206 206.008V211.584H418.934V199.595H422.395L425.232 208.763H425.282L428.291 199.595H431.752V211.584H429.382V205.909C429.382 205.532 429.388 205.098 429.399 204.606C429.415 204.113 429.434 203.646 429.456 203.203C429.478 202.755 429.494 202.419 429.505 202.194H429.431L426.34 211.584H424.011ZM434.778 211.584V199.595H437.321V209.485H442.184V211.584H434.778Z" fill="white"/>
<path d="M430.67 290.21C431.35 286.081 431.35 281.869 430.67 277.74H420C419.301 274.682 418.091 271.765 416.42 269.11L423.98 261.55C421.537 258.155 418.558 255.18 415.16 252.74L407.61 260.29C404.953 258.618 402.031 257.407 398.97 256.71V246C394.841 245.32 390.629 245.32 386.5 246V256.69C383.442 257.389 380.525 258.599 377.87 260.27L370.31 252.72C366.918 255.163 363.943 258.138 361.5 261.53L369.05 269.09C367.383 271.747 366.173 274.664 365.47 277.72H354.77C354.077 281.848 354.077 286.062 354.77 290.19H365.45C366.151 293.251 367.361 296.171 369.03 298.83L361.48 306.38C363.922 309.776 366.897 312.754 370.29 315.2L377.85 307.64C380.505 309.311 383.422 310.521 386.48 311.22V321.91C390.609 322.59 394.821 322.59 398.95 321.91V311.24C402.011 310.543 404.933 309.333 407.59 307.66L415.14 315.22C418.552 312.78 421.545 309.802 424 306.4L416.44 298.85C418.113 296.193 419.323 293.272 420.02 290.21H430.67ZM392.72 297.74C389.995 297.742 387.33 296.935 385.064 295.422C382.798 293.909 381.031 291.757 379.988 289.24C378.945 286.722 378.673 283.951 379.206 281.279C379.738 278.606 381.052 276.152 382.98 274.226C384.909 272.301 387.365 270.991 390.038 270.462C392.712 269.933 395.482 270.21 397.998 271.256C400.514 272.303 402.663 274.072 404.173 276.341C405.683 278.609 406.486 281.275 406.48 284C406.475 287.646 405.023 291.141 402.443 293.717C399.863 296.293 396.366 297.74 392.72 297.74Z" fill="#FF6C37"/>
<path d="M469.6 318.13C469.71 316.819 469.71 315.501 469.6 314.19C469.491 312.881 469.277 311.584 468.96 310.31L462.25 310.87C461.649 308.988 460.736 307.22 459.55 305.64L463.89 300.5C462.174 298.5 460.148 296.789 457.89 295.43L453.54 300.57C451.784 299.663 449.887 299.058 447.93 298.78L447.37 292.07C444.745 291.861 442.103 292.084 439.55 292.73L440.11 299.44C438.228 300.041 436.46 300.954 434.88 302.14L429.74 297.79C427.741 299.504 426.033 301.531 424.68 303.79L429.82 308.13C428.905 309.884 428.297 311.781 428.02 313.74L421.32 314.3C421.215 315.611 421.215 316.929 421.32 318.24C421.437 319.548 421.655 320.845 421.97 322.12L428.68 321.56C429.277 323.444 430.19 325.212 431.38 326.79L427 331.93C428.711 333.934 430.738 335.647 433 337L437.34 331.86C439.095 332.77 440.992 333.375 442.95 333.65L443.52 340.36C444.828 340.465 446.142 340.465 447.45 340.36C448.763 340.252 450.064 340.035 451.34 339.71L450.77 333.01C452.656 332.411 454.428 331.498 456.01 330.31L461.14 334.65C463.147 332.941 464.859 330.914 466.21 328.65L461.07 324.31C461.981 322.555 462.587 320.658 462.86 318.7L469.6 318.13ZM446.18 324.85C444.471 324.992 442.758 324.625 441.258 323.794C439.758 322.963 438.539 321.706 437.753 320.181C436.968 318.657 436.652 316.934 436.845 315.23C437.039 313.527 437.734 311.919 438.841 310.609C439.949 309.3 441.42 308.349 443.068 307.876C444.716 307.403 446.468 307.43 448.101 307.952C449.734 308.474 451.176 309.469 452.244 310.811C453.312 312.153 453.958 313.781 454.1 315.49C454.196 316.625 454.067 317.767 453.721 318.852C453.374 319.937 452.817 320.943 452.082 321.813C451.346 322.682 450.446 323.398 449.433 323.919C448.421 324.44 447.315 324.757 446.18 324.85Z" fill="#407BFF"/>
<g opacity="0.2">
<path d="M210.11 4.00001H91.8001C90.5215 3.99869 89.2551 4.2494 88.0735 4.73779C86.8918 5.22618 85.818 5.94267 84.9134 6.84632C84.0089 7.74996 83.2913 8.82303 82.8017 10.0042C82.3121 11.1853 82.0601 12.4514 82.0601 13.73V83C82.0601 85.5832 83.0862 88.0606 84.9128 89.8872C86.7394 91.7138 89.2169 92.74 91.8001 92.74H140.06C140.875 92.7327 141.676 92.9536 142.373 93.3777C143.069 93.8018 143.633 94.4123 144 95.14L150 107.02C150.096 107.202 150.24 107.355 150.416 107.461C150.592 107.568 150.794 107.624 151 107.624C151.206 107.624 151.408 107.568 151.584 107.461C151.76 107.355 151.904 107.202 152 107.02L158 95.14C158.364 94.415 158.922 93.8055 159.613 93.3799C160.303 92.9543 161.099 92.7292 161.91 92.73H210.17C212.741 92.7142 215.202 91.6824 217.015 89.8596C218.828 88.0369 219.847 85.5711 219.85 83V13.72C219.849 12.4422 219.596 11.1773 219.106 9.99726C218.615 8.81726 217.898 7.74537 216.993 6.84278C216.089 5.9402 215.015 5.22459 213.834 4.73683C212.653 4.24906 211.388 3.99869 210.11 4.00001Z" fill="black"/>
</g>
<path d="M208 0H89.6701C87.0868 0 84.6094 1.02618 82.7828 2.85278C80.9562 4.67938 79.9301 7.15679 79.9301 9.74V79C79.9327 81.5815 80.9601 84.0563 82.7864 85.8808C84.6127 87.7052 87.0886 88.73 89.6701 88.73H137.93C138.742 88.7302 139.538 88.9567 140.229 89.3841C140.92 89.8116 141.478 90.4231 141.84 91.15L147.84 103.03C147.938 103.209 148.083 103.359 148.259 103.463C148.435 103.568 148.636 103.623 148.84 103.623C149.045 103.623 149.245 103.568 149.421 103.463C149.597 103.359 149.742 103.209 149.84 103.03L155.84 91.15C156.206 90.4238 156.766 89.8132 157.458 89.386C158.15 88.9588 158.947 88.7317 159.76 88.73H208C210.579 88.7274 213.051 87.7011 214.874 85.8766C216.696 84.0522 217.72 81.5788 217.72 79V9.74C217.72 7.16025 216.697 4.68587 214.874 2.85984C213.052 1.03381 210.58 0.00529722 208 0Z" fill="#313F4A"/>
<path d="M130.62 17.8699H98.72C98.2221 17.8699 97.7444 17.6735 97.3905 17.3234C97.0367 16.9733 96.8352 16.4976 96.83 15.9999C96.83 15.4986 97.0291 15.0179 97.3835 14.6634C97.738 14.309 98.2187 14.1099 98.72 14.1099H130.62C131.121 14.1099 131.602 14.309 131.956 14.6634C132.311 15.0179 132.51 15.4986 132.51 15.9999C132.505 16.4976 132.303 16.9733 131.949 17.3234C131.595 17.6735 131.118 17.8699 130.62 17.8699Z" fill="#407BFF"/>
<path d="M144.1 22.6899H98.72C97.6761 22.6899 96.83 23.5361 96.83 24.5799C96.83 25.6238 97.6761 26.4699 98.72 26.4699H144.1C145.144 26.4699 145.99 25.6238 145.99 24.5799C145.99 23.5361 145.144 22.6899 144.1 22.6899Z" fill="white"/>
<path d="M197.31 17.8698H138.93C138.68 17.8751 138.432 17.8308 138.199 17.7394C137.966 17.6481 137.754 17.5115 137.575 17.3376C137.395 17.1637 137.252 16.9559 137.153 16.7263C137.055 16.4966 137.003 16.2497 137 15.9998C137 15.4985 137.199 15.0178 137.554 14.6634C137.908 14.3089 138.389 14.1098 138.89 14.1098H197.27C197.522 14.1045 197.772 14.1494 198.006 14.242C198.239 14.3346 198.453 14.473 198.632 14.649C198.812 14.8251 198.955 15.0352 199.052 15.2672C199.15 15.4991 199.2 15.7482 199.2 15.9998C199.195 16.4976 198.993 16.9732 198.639 17.3233C198.286 17.6734 197.808 17.8698 197.31 17.8698Z" fill="#3593BF"/>
<path d="M197.31 22.6899H151.93C150.886 22.6899 150.04 23.5361 150.04 24.5799C150.04 25.6238 150.886 26.4699 151.93 26.4699H197.31C198.354 26.4699 199.2 25.6238 199.2 24.5799C199.2 23.5361 198.354 22.6899 197.31 22.6899Z" fill="white"/>
<path d="M167.23 33.0601H97.72C97.4839 33.0601 97.2575 32.9663 97.0906 32.7994C96.9237 32.6325 96.83 32.4061 96.83 32.1701C96.8299 32.0537 96.853 31.9384 96.8979 31.831C96.9427 31.7236 97.0084 31.6261 97.0912 31.5443C97.174 31.4624 97.2722 31.3978 97.3801 31.3542C97.488 31.3106 97.6036 31.2888 97.72 31.2901H167.23C167.346 31.2888 167.462 31.3106 167.57 31.3542C167.678 31.3978 167.776 31.4624 167.859 31.5443C167.941 31.6261 168.007 31.7236 168.052 31.831C168.097 31.9384 168.12 32.0537 168.12 32.1701C168.12 32.4061 168.026 32.6325 167.859 32.7994C167.692 32.9663 167.466 33.0601 167.23 33.0601Z" fill="#FF6C37"/>
<path d="M152.9 49.1101H98.72C98.2187 49.1101 97.738 48.911 97.3835 48.5565C97.0291 48.2021 96.83 47.7213 96.83 47.2201C96.83 46.7188 97.0291 46.2381 97.3835 45.8836C97.738 45.5292 98.2187 45.3301 98.72 45.3301H152.9C153.401 45.3301 153.882 45.5292 154.236 45.8836C154.591 46.2381 154.79 46.7188 154.79 47.2201C154.79 47.7213 154.591 48.2021 154.236 48.5565C153.882 48.911 153.401 49.1101 152.9 49.1101Z" fill="#407BFF"/>
<path d="M130.62 57.7102H98.72C98.2187 57.7102 97.738 57.5111 97.3835 57.1566C97.0291 56.8022 96.83 56.3214 96.83 55.8202C96.83 55.3189 97.0291 54.8382 97.3835 54.4837C97.738 54.1293 98.2187 53.9302 98.72 53.9302H130.62C131.121 53.9302 131.602 54.1293 131.956 54.4837C132.311 54.8382 132.51 55.3189 132.51 55.8202C132.51 56.3214 132.311 56.8022 131.956 57.1566C131.602 57.5111 131.121 57.7102 130.62 57.7102Z" fill="#407BFF"/>
<path d="M144.1 66.3099H98.72C98.2187 66.3099 97.738 66.1108 97.3835 65.7563C97.0291 65.4019 96.83 64.9212 96.83 64.4199C96.83 63.9186 97.0291 63.4379 97.3835 63.0835C97.738 62.729 98.2187 62.5299 98.72 62.5299H144.1C144.349 62.5272 144.597 62.5742 144.828 62.6682C145.059 62.7621 145.269 62.901 145.446 63.0769C145.623 63.2528 145.763 63.4622 145.858 63.6927C145.953 63.9233 146.001 64.1705 146 64.4199C146 64.6689 145.951 64.9155 145.855 65.1455C145.76 65.3754 145.619 65.5842 145.443 65.7599C145.266 65.9355 145.057 66.0745 144.826 66.1689C144.596 66.2633 144.349 66.3112 144.1 66.3099Z" fill="white"/>
<path d="M197.31 57.7102H138.93C138.678 57.7155 138.428 57.6705 138.194 57.578C137.961 57.4854 137.747 57.347 137.568 57.171C137.388 56.9949 137.245 56.7848 137.148 56.5528C137.05 56.3209 137 56.0718 137 55.8202C137 55.3189 137.199 54.8382 137.554 54.4837C137.908 54.1293 138.389 53.9302 138.89 53.9302H197.27C197.771 53.9302 198.252 54.1293 198.606 54.4837C198.961 54.8382 199.16 55.3189 199.16 55.8202C199.16 56.3146 198.966 56.7893 198.621 57.1427C198.275 57.496 197.804 57.6997 197.31 57.7102Z" fill="#3593BF"/>
<path d="M197.31 66.3098H151.93C151.678 66.3151 151.428 66.2702 151.194 66.1776C150.961 66.085 150.747 65.9466 150.568 65.7706C150.388 65.5945 150.245 65.3844 150.148 65.1524C150.05 64.9205 150 64.6714 150 64.4198C150 63.9185 150.199 63.4378 150.554 63.0834C150.908 62.7289 151.389 62.5298 151.89 62.5298H197.27C197.771 62.5298 198.252 62.7289 198.606 63.0834C198.961 63.4378 199.16 63.9185 199.16 64.4198C199.16 64.9142 198.966 65.389 198.621 65.7423C198.275 66.0956 197.804 66.2993 197.31 66.3098Z" fill="white"/>
<path d="M167.23 72.8999H97.72C97.4839 72.8999 97.2575 72.8061 97.0906 72.6392C96.9237 72.4723 96.83 72.2459 96.83 72.0099C96.8326 71.7756 96.9275 71.5518 97.0941 71.387C97.2608 71.2223 97.4856 71.1299 97.72 71.1299H167.23C167.464 71.1299 167.689 71.2223 167.856 71.387C168.022 71.5518 168.117 71.7756 168.12 72.0099C168.12 72.2459 168.026 72.4723 167.859 72.6392C167.692 72.8061 167.466 72.8999 167.23 72.8999Z" fill="#FF6C37"/>
<path d="M344.98 187.78H19.72V197.86H344.98V187.78Z" fill="#657C8F"/>
<path d="M259.52 197.86H251.8V390.47H259.52V197.86Z" fill="#657C8F"/>
<path d="M352.7 390.47H344.98L319.9 197.86H327.62L352.7 390.47Z" fill="#657C8F"/>
<path d="M259.51 213.3V197.86H251.8V212.28L259.51 213.3Z" fill="#313F4A"/>
<path d="M327.62 197.86H319.9L323.02 221.76L330.87 222.81L327.62 197.86Z" fill="#313F4A"/>
<path d="M40.73 197.86H33.01V390.47H40.73V197.86Z" fill="#657C8F"/>
<path d="M133.91 390.47H126.19L101.12 197.86H108.84L133.91 390.47Z" fill="#657C8F"/>
<path d="M40.73 213.3V197.86H33.01V212.28L40.73 213.3Z" fill="#313F4A"/>
<path d="M108.84 197.86H101.12L104.23 221.76L112.08 222.81L108.84 197.86Z" fill="#313F4A"/>
<path d="M24.49 390.47H49.43" stroke="#657C8F" stroke-width="1.06121" stroke-miterlimit="10"/>
<path d="M117.51 390.47H142.45" stroke="#657C8F" stroke-width="1.06121" stroke-miterlimit="10"/>
<path d="M242.54 390.47H267.47" stroke="#657C8F" stroke-width="1.06121" stroke-miterlimit="10"/>
<path d="M335.56 390.47H360.49" stroke="#657C8F" stroke-width="1.06121" stroke-miterlimit="10"/>
</g>
<defs>
<clipPath id="clip0_4263_27163">
<rect width="469.68" height="391" fill="white"/>
</clipPath>
</defs>
</svg>
